<?xml version="1.0" encoding="utf-8"?>
<!-- Generator: Adobe Illustrator 24.0.2, SVG Export Plug-In . SVG Version: 6.00 Build 0)  -->
<svg version="1.1" id="Layer_1" xmlns="http://www.w3.org/2000/svg" xmlns:xlink="http://www.w3.org/1999/xlink" x="0px" y="0px"
	 viewBox="0 0 300 120" style="enable-background:new 0 0 300 120;" xml:space="preserve">
<style type="text/css">
	.st0{fill:#545453;}
	.st1{fill:#ED6F25;}
	.st2{fill:#88BE43;}
	.st3{fill:#0472B7;}
	.st4{fill:#E11883;}
	.st5{fill:#2BA6DF;}
	.st6{fill:#3DAC4B;}
</style>
<g>
	<rect x="37.39" y="41.37" class="st0" width="10.76" height="8.98"/>
	<rect x="37.73" y="55.15" class="st0" width="10.06" height="32.64"/>
	<path class="st0" d="M75.19,54.38c-1.91,0-3.74,0.4-5.49,1.18c-1.75,0.79-3.16,1.83-4.23,3.13l-0.28-3.55h-9.64v32.64h9.99V70.25
		c0-0.97,0.14-1.89,0.42-2.75c0.28-0.86,0.7-1.61,1.26-2.26c0.56-0.65,1.26-1.17,2.1-1.57c0.84-0.39,1.82-0.59,2.94-0.59
		c1.63,0,2.9,0.53,3.81,1.6c0.91,1.07,1.36,2.5,1.36,4.31v18.79h10.06V67.61c0-4.36-1.11-7.65-3.32-9.88
		C81.96,55.5,78.96,54.38,75.19,54.38z"/>
	<path class="st0" d="M122.25,59.29c-1.37-1.65-3.06-2.93-5.07-3.86c-2-0.93-4.33-1.39-6.99-1.39c-2.66,0-5.03,0.48-7.13,1.43
		c-2.1,0.95-3.87,2.22-5.31,3.79c-1.44,1.58-2.55,3.42-3.32,5.53c-0.77,2.11-1.15,4.3-1.15,6.58c0,2.6,0.41,4.98,1.22,7.13
		c0.81,2.16,2,4,3.56,5.53c1.56,1.53,3.46,2.73,5.7,3.58c2.24,0.86,4.75,1.29,7.55,1.29c2.1,0,3.96-0.2,5.59-0.59
		c1.63-0.39,3.04-0.85,4.23-1.36c1.19-0.51,2.15-1.03,2.9-1.57c0.74-0.53,1.3-0.92,1.68-1.15l-4.12-6.33
		c-0.75,0.56-1.93,1.22-3.56,1.98c-1.63,0.77-3.75,1.15-6.36,1.15c-2.66,0-4.74-0.66-6.25-1.98c-1.51-1.32-2.29-2.86-2.34-4.63
		h23.34v-1.67c0-2.74-0.35-5.25-1.05-7.55C124.67,62.91,123.63,60.94,122.25,59.29z M103.07,68.02c0-0.7,0.15-1.4,0.45-2.12
		c0.3-0.72,0.74-1.38,1.33-1.98c0.58-0.6,1.32-1.1,2.2-1.5c0.88-0.39,1.91-0.59,3.07-0.59c1.16,0,2.17,0.2,3.01,0.59
		c0.84,0.39,1.54,0.89,2.1,1.5c0.56,0.6,0.98,1.26,1.26,1.98c0.28,0.72,0.42,1.43,0.42,2.12H103.07z"/>
	<path class="st0" d="M24.45,79.21c-1.16,0.67-2.61,1.01-4.33,1.01c-1.21,0-2.3-0.25-3.25-0.77c-0.96-0.51-1.77-1.17-2.45-1.98
		c-0.68-0.81-1.19-1.74-1.54-2.78c-0.35-1.04-0.52-2.1-0.52-3.17c0-1.16,0.17-2.26,0.52-3.31c0.35-1.04,0.86-1.96,1.54-2.75
		c0.67-0.79,1.49-1.43,2.45-1.91c0.95-0.49,2.04-0.73,3.25-0.73c1.77,0,3.19,0.32,4.26,0.97c1.06,0.64,1.96,1.38,2.7,2.2l4.59-7.95
		c-1.17-0.97-2.51-1.8-4.01-2.47c-2.19-0.97-4.78-1.46-7.76-1.46c-2.56,0-4.93,0.45-7.09,1.36c-2.17,0.9-4.03,2.15-5.59,3.72
		c-1.56,1.58-2.78,3.42-3.67,5.53c-0.89,2.11-1.33,4.37-1.33,6.78c0,2.55,0.43,4.89,1.29,7.03c0.86,2.13,2.06,3.98,3.6,5.53
		c1.54,1.55,3.39,2.76,5.56,3.62c2.17,0.86,4.58,1.29,7.23,1.29c3.03,0,5.65-0.53,7.86-1.6c1.53-0.74,2.85-1.58,3.97-2.52
		l-4.52-7.83C26.52,77.82,25.6,78.54,24.45,79.21z"/>
	<rect x="195.73" y="41.46" class="st0" width="10.09" height="46.52"/>
	<rect x="213.17" y="41.46" class="st0" width="10.79" height="9"/>
	<rect x="213.52" y="55.27" class="st0" width="10.09" height="32.71"/>
	<polygon class="st0" points="285.17,67.33 296.94,55.27 285.52,55.27 275.51,65.59 275.51,41.46 265.42,41.46 265.42,87.98 
		275.51,87.98 275.51,77.17 278.45,74.17 286.85,87.98 298.55,87.98 	"/>
	<path class="st0" d="M252.11,79.3c-1.17,0.67-2.62,1.01-4.34,1.01c-1.22,0-2.3-0.25-3.26-0.77c-0.96-0.51-1.77-1.17-2.45-1.99
		c-0.68-0.81-1.19-1.74-1.54-2.79c-0.35-1.05-0.53-2.1-0.53-3.17c0-1.16,0.18-2.27,0.53-3.31c0.35-1.05,0.86-1.96,1.54-2.76
		c0.68-0.79,1.49-1.43,2.45-1.92c0.96-0.49,2.04-0.73,3.26-0.73c1.77,0,3.2,0.33,4.27,0.98c1.07,0.65,1.98,1.39,2.73,2.23l0,0
		l4.6-7.96c-1.18-0.98-2.53-1.82-4.04-2.49c-2.2-0.98-4.79-1.47-7.77-1.47c-2.57,0-4.94,0.45-7.11,1.36
		c-2.17,0.91-4.04,2.15-5.6,3.73c-1.57,1.58-2.79,3.43-3.68,5.54c-0.89,2.12-1.33,4.38-1.33,6.8c0,2.56,0.43,4.91,1.3,7.04
		c0.86,2.14,2.07,3.99,3.61,5.55c1.54,1.56,3.4,2.77,5.57,3.63c2.17,0.86,4.59,1.29,7.25,1.29c3.03,0,5.66-0.54,7.88-1.6
		c1.55-0.75,2.88-1.6,4-2.54l-4.53-7.85C254.21,77.89,253.28,78.62,252.11,79.3z"/>
</g>
<g>
	<path class="st1" d="M183.62,44.35c-1.08,0-2.17-0.27-3.17-0.85c-3.04-1.75-4.08-5.64-2.33-8.68l9.03-15.63
		c-6.91-4.06-14.72-6.27-22.86-6.44c-3.51-0.07-6.29-2.98-6.22-6.49c0.07-3.51,2.99-6.29,6.49-6.22
		c12.72,0.27,24.79,4.46,34.9,12.11c2.55,1.93,3.27,5.47,1.67,8.24l-11.99,20.78C187.95,43.21,185.81,44.35,183.62,44.35z"/>
</g>
<g>
	<path class="st2" d="M131.82,22.91c-1.97,0-3.91-0.91-5.16-2.63c-2.05-2.84-1.41-6.82,1.43-8.87c10.54-7.62,23.5-11.67,36.46-11.39
		c3.51,0.07,6.29,2.98,6.22,6.49c-0.07,3.51-3,6.29-6.49,6.22c-10.22-0.21-20.43,2.97-28.75,8.98
		C134.41,22.51,133.11,22.91,131.82,22.91z"/>
</g>
<g>
	<path class="st3" d="M163.29,120c-0.84,0-1.68-0.02-2.52-0.05c-3.51-0.15-6.23-3.11-6.08-6.62c0.15-3.51,3.11-6.23,6.62-6.08
		c10.85,0.46,21.62-2.89,30.33-9.43c2.81-2.11,6.79-1.54,8.9,1.27c2.11,2.81,1.54,6.79-1.27,8.9C188.89,115.78,176.2,120,163.29,120
		z"/>
</g>
<g>
	<path class="st4" d="M142.37,56.04c-0.95,0-1.91-0.21-2.81-0.66c-3.15-1.56-4.43-5.37-2.88-8.51
		c5.04-10.19,15.23-16.52,26.59-16.52c5.41,0,10.57,1.42,15.08,4.1c1.85-2.75,5.54-3.64,8.45-1.96c3.04,1.75,4.08,5.64,2.33,8.68
		l-3.45,5.98c-1,1.74-2.76,2.9-4.75,3.13c-1.99,0.23-3.98-0.48-5.36-1.94c-3.24-3.41-7.6-5.29-12.29-5.29
		c-6.49,0-12.32,3.62-15.2,9.45C146.96,54.75,144.71,56.04,142.37,56.04z"/>
</g>
<g>
	<path class="st0" d="M163.27,89.66c-16.35,0-29.66-13.3-29.66-29.66c0-4.61,1.03-9.03,3.06-13.13c1.56-3.15,5.37-4.43,8.51-2.88
		c3.15,1.56,4.43,5.37,2.88,8.51c-1.16,2.34-1.74,4.86-1.74,7.5c0,9.35,7.6,16.95,16.95,16.95c4.66,0,9-1.85,12.23-5.22
		c1.8-1.87,4.55-2.46,6.96-1.5c2.41,0.97,3.98,3.3,3.98,5.9c0,1.77-0.72,3.36-1.88,4.52C178.92,86.46,171.37,89.66,163.27,89.66z"/>
</g>
<g>
	<path class="st5" d="M161.05,119.95c-0.09,0-0.18,0-0.26-0.01c-14.78-0.6-28.75-6.63-39.36-16.96c-1.85-1.8-2.43-4.55-1.45-6.94
		c0.97-2.4,3.3-3.96,5.89-3.96c1.79,0,3.4,0.74,4.56,1.92c8.35,8.07,19.31,12.77,30.89,13.24c3.51,0.14,6.23,3.1,6.09,6.61
		C167.25,117.27,164.44,119.95,161.05,119.95z"/>
</g>
<g>
	<path class="st6" d="M113.12,47.47h-0.06c-2.09,0-4.04-1.02-5.22-2.74c-1.19-1.71-1.46-3.9-0.72-5.85
		c4.14-11.01,11.4-20.5,20.97-27.45c2.84-2.06,6.81-1.43,8.87,1.41c2.06,2.84,1.43,6.81-1.41,8.87
		c-7.34,5.32-12.94,12.53-16.25,20.89C118.63,45.39,116.12,47.47,113.12,47.47z"/>
</g>
</svg>
