<!DOCTYPE svg PUBLIC "-//W3C//DTD SVG 1.1//EN" "http://www.w3.org/Graphics/SVG/1.1/DTD/svg11.dtd">
<svg xmlns="http://www.w3.org/2000/svg" viewBox="0 0 259 65">
<path d="M177.502 2.072c-13.499 2.103-15.173 2.736-14.166 5.361.755 1.967 3.351 1.966 14.76-.003 9.718-1.677 11.141-1.461 8.645 1.314-.869.966-3.621 5.865-6.117 10.887-4.3 8.652-4.737 9.168-8.331 9.841-5.81 1.089-10.293 3.257-10.293 4.977 0 1.921 1.187 1.928 7.415.038 6.046-1.834 5.846-2.091 3.624 4.642-4.982 15.101-6.004 19.947-4.342 20.585 2.986 1.146 4.585-1.325 8.252-12.751 5.368-16.726 4.941-16.192 12.632-15.795 9.471.489 8.865-3.079-.705-4.15l-4.624-.518 3.87-8.916C193.145 6.009 194.106 5 200.106 5c7.1 0 15.09 1.94 17.644 4.284l2.25 2.065v-2.52c0-7.918-17.345-10.676-42.498-6.757M15.5 6.412C9.415 9.116 2.351 18.058.625 25.242-.188 28.624 2.3 35 4.433 35c1.359 0 1.347-.394-.107-3.443-2.323-4.87.204-11.217 7.283-18.296C17.884 6.986 20 6.531 20 11.457c0 4.165-5.61 26.05-10.385 40.516C6.006 62.905 5.945 64 8.937 64c2.543 0 3.348-1.311 6.883-11.205 5.718-16.006 17-34.575 24.676-40.613 6.019-4.735 5.958-1.848-.496 23.416C33.577 60.742 33.596 64 40.163 64c2.501 0 4.314-1.263 9.465-6.595C55.781 51.036 56 50.908 56 53.682c0 8.17 8.574 10.199 14.904 3.528C76.447 51.367 80 49.351 80 52.046c0 4.644 4.258 1.791 7.967-5.338 8.478-16.297 20.505-21.645 15.604-6.938-2.537 7.613-5.022 10.952-8.748 11.755-7.501 1.616-10.784 4.811-8.784 8.547 2.177 4.068 11.534.607 16.898-6.25 1.152-1.472 3.775-3.218 5.829-3.88 2.054-.661 4.322-1.67 5.041-2.242 1.057-.84 1.179-.074.638 4.002-1.175 8.859 3.267 8.221 7.018-1.009 4.834-11.895 10.942-18.902 11.717-13.443.54 3.799 3.32 2.753 3.32-1.25 0-4.889-4.174-5.48-8.457-1.197-2.801 2.801-2.952 2.839-3.24.817-.643-4.502-4.828-2.652-6.966 3.08-1.367 3.667-2.918 5.805-5.256 7.25-4.79 2.96-5.554 2.636-4.007-1.7 4.745-13.296-4.21-19.507-14.324-9.934-1.787 1.692-3.25 2.532-3.25 1.867s2.685-3.811 5.966-6.993c8.031-7.785 10.788-14.293 7.463-17.619C98.857 6 92.247 13.866 84.984 34.714c-1.9 5.454-4.49 10.694-6.347 12.843L75.5 51.186v-6.793c0-6.25-.205-6.908-2.569-8.246-5.295-2.997-10.043.286-20.431 14.126-10.111 13.471-13.936 13.722-9.997.658C51.955 19.586 52.517 8 44.587 8c-2.746 0-12.499 9.856-18.061 18.25-2.095 3.162-3.915 5.75-4.044 5.75-.129 0 .369-2.812 1.107-6.25 3.41-15.897.394-23.109-8.089-19.338m85.276 7.314C99.296 15.392 94 27.073 94 28.673c0 2.091 8.224-7.688 9.197-10.937 1.37-4.571.038-6.776-2.421-4.01m110.489 3.786c-4.361 3.084-12.305 20.779-15.272 34.018-2.721 12.142 5.68 12.481 16.089.649 3.649-4.147 4.048-4.374 3.516-1.998-.879 3.92.897 7.819 3.561 7.819 2.669 0 9.807-7.181 15.115-15.206 4.774-7.217 6.242-8.239 5.3-3.689-2.792 13.485-3.227 14.739-6.324 18.265-3.198 3.641-4.213 6.63-2.25 6.63.55 0 1.01-.562 1.022-1.25.012-.687.86-2.339 1.883-3.671l1.861-2.42.681 3.101c1.98 9.012 10.055 4.458 18.921-10.671 5.367-9.156 4.412-10.796-1.216-2.089C245.593 60.242 242 62.866 242 55.876c0-3.639.533-4.593 4.534-8.114 4.547-4.003 7.902-8.992 6.793-10.102-.326-.326-1.808 1.08-3.293 3.124-4.64 6.385-6.464 7.416-5.687 3.213 1.849-10.011 1.878-10.697.477-11.234-3.177-1.22-7.395 2.101-14.258 11.225-9.604 12.768-12.473 12.682-7.567-.227 2.416-6.356 2.506-8.353.411-9.157-2.272-.872-3.097-.099-5.361 5.017-3.6 8.139-17.032 21.308-17.061 16.727-.035-5.653 5.459-17.474 9.761-20.999 9.429-7.726 12.66-18.478 5.751-19.133-1.65-.157-4.006.426-5.235 1.296m3.879 1.814C213.718 21.045 209 31.709 209 33.216c0 1.611 5.87-4.125 7.589-7.416 2.57-4.919 1.445-9.956-1.445-6.474m9.106 6.341c-2.436.974-1.536 6.513 1 6.153 1.746-.248 2.25-.973 2.25-3.237 0-2.952-.975-3.826-3.25-2.916m-79.316 7.042c-4.398 3.7-6.885 9.605-6.912 16.406-.04 10.222 6.107 13.879 14.147 8.416C155.875 55.013 164 43.7 164 41.058c0-1.679-.057-1.62-5.978 6.261-4.227 5.627-11.04 10.406-13.056 9.16-1.908-1.18-1.141-9.289.942-9.95C149.068 45.526 156 37.304 156 34.558c0-4.957-6.151-5.985-11.066-1.849m5.795.423c-1.766.988-3.928 4.592-5.17 8.618-1.044 3.384 1.182 2.805 5.073-1.321 4.468-4.738 4.535-9.781.097-7.297m-82.806 4.851c-2.577 1.508-5.486 8.897-4.271 10.853 3.941 6.349 9.336 4.346 10.114-3.756.658-6.848-1.593-9.583-5.843-7.097m-5.755 17.163c.382 2.683 3.225 3.603 5.443 1.762 1.666-1.383 1.025-2.012-3.443-3.38-2.028-.622-2.288-.411-2 1.618m29.082-.157C88.025 56.955 86.826 60 89.277 60c1.829 0 5.529-2.768 6.75-5.051 1.392-2.6-.474-2.584-4.777.04" fill-rule="evenodd"/>
</svg>